HIERARCHY
ROOT Hips
{
 OFFSET 0.000000 0.000000 0.000000
 CHANNELS 6 Xposition Yposition Zposition Yrotation Xrotation Zrotation
 JOINT Chest
 {
  OFFSET 0.000000 9.585900 0.002600
  CHANNELS 3 Yrotation Xrotation Zrotation
  JOINT Chest2
  {
   OFFSET 0.000000 9.601200 -0.005300
   CHANNELS 3 Yrotation Xrotation Zrotation
   JOINT Chest3
   {
    OFFSET 0.000000 9.561800 0.000000
    CHANNELS 3 Yrotation Xrotation Zrotation
    JOINT Chest4
    {
     OFFSET 0.000000 9.552100 0.000000
     CHANNELS 3 Yrotation Xrotation Zrotation
     JOINT Neck
     {
      OFFSET 0.000000 14.453000 0.000000
      CHANNELS 3 Yrotation Xrotation Zrotation
      JOINT Head
      {
       OFFSET 0.000000 8.936500 -0.011300
       CHANNELS 3 Yrotation Xrotation Zrotation
       End Site
       {
        OFFSET 0.000000 17.073600 -0.006000
       }
      }
     }
     JOINT RightCollar
     {
      OFFSET -2.921100 9.558500 0.000000
      CHANNELS 3 Yrotation Xrotation Zrotation
      JOINT RightShoulder
      {
       OFFSET -13.519700 0.000000 0.000000
       CHANNELS 3 Yrotation Xrotation Zrotation
       JOINT RightElbow
       {
        OFFSET 0.000000 -29.696600 0.000000
        CHANNELS 3 Yrotation Xrotation Zrotation
        JOINT RightWrist
        {
         OFFSET 0.000000 -24.004700 0.000000
         CHANNELS 3 Yrotation Xrotation Zrotation
         End Site
         {
          OFFSET 0.000000 -17.728500 0.000000
         }
        }
       }
      }
     }
     JOINT LeftCollar
     {
      OFFSET 2.921100 9.558500 0.000000
      CHANNELS 3 Yrotation Xrotation Zrotation
      JOINT LeftShoulder
      {
       OFFSET 13.519700 0.000000 0.000000
       CHANNELS 3 Yrotation Xrotation Zrotation
       JOINT LeftElbow
       {
        OFFSET 0.000000 -29.696600 0.000000
        CHANNELS 3 Yrotation Xrotation Zrotation
        JOINT LeftWrist
        {
         OFFSET 0.000000 -24.004700 0.000000
         CHANNELS 3 Yrotation Xrotation Zrotation
         End Site
         {
          OFFSET 0.000000 -17.728500 0.000000
         }
        }
       }
      }
     }
    }
   }
  }
 }
 JOINT RightHip
 {
  OFFSET -7.771700 -0.012900 -0.001300
  CHANNELS 3 Yrotation Xrotation Zrotation
  JOINT RightKnee
  {
   OFFSET 0.000000 -40.869800 0.001200
   CHANNELS 3 Yrotation Xrotation Zrotation
   JOINT RightAnkle
   {
    OFFSET 0.000000 -39.717900 0.002100
    CHANNELS 3 Yrotation Xrotation Zrotation
    JOINT RightToe
    {
     OFFSET 0.000000 -4.965400 11.033500
     CHANNELS 3 Yrotation Xrotation Zrotation
     End Site
     {
      OFFSET 0.000000 -1.423100 5.872300
     }
    }
   }
  }
 }
 JOINT LeftHip
 {
  OFFSET 7.771700 -0.012900 -0.001300
  CHANNELS 3 Yrotation Xrotation Zrotation
  JOINT LeftKnee
  {
   OFFSET 0.000000 -40.869800 0.001200
   CHANNELS 3 Yrotation Xrotation Zrotation
   JOINT LeftAnkle
   {
    OFFSET 0.000000 -39.717900 0.002100
    CHANNELS 3 Yrotation Xrotation Zrotation
    JOINT LeftToe
    {
     OFFSET 0.000000 -4.965400 11.033500
     CHANNELS 3 Yrotation Xrotation Zrotation
     End Site
     {
      OFFSET 0.000000 -1.423100 5.872300
     }
    }
   }
  }
 }
}
MOTION
Frames: 9
Frame Time: 0.008333
0.000000 85.388000 0.000000 0.000000 -5.767877 0.000000 0.000000 11.653817 0.000000 0.000000 -5.885947 0.000000 0.000000 -0.000000 0.000000 0.000000 -0.000000 0.000000 0.000000 12.528835 0.000000 0.000000 0.711642 0.000000 0.000000 -0.000000 0.000000 0.000000 0.000000 -90.000000 0.000000 -2.309062 0.000000 0.000000 2.309062 0.000000 0.000000 -0.000000 0.000000 0.000000 -0.000000 90.000000 0.000000 -2.309062 0.000000 0.000000 2.309062 0.000000 0.000000 8.520406 0.000000 0.000000 1.905762 0.000000 -0.000000 -4.658285 0.000000 0.000000 -0.000000 0.000000 0.000000 8.520406 0.000000 0.000000 1.905762 0.000000 -0.000000 -4.658285 0.000000 0.000000 -0.000000 0.000000
-164.248595 49.142231 17.738495 178.154562 -30.768924 -2.732478 1.024554 18.263057 2.845050 0.068173 2.080571 0.285027 0.121672 3.422111 0.492460 0.811053 15.917096 2.300575 11.078173 21.019208 -2.361692 20.776719 4.275535 -7.324539 -3.999536 -1.408896 -2.717787 4.647739 -8.746185 -14.821890 -36.062713 -39.805226 87.200106 2.502105 3.762115 -13.586435 -0.142918 -1.767792 3.567507 6.718389 -14.934948 11.208142 70.579016 -40.819950 -104.423053 15.459595 -5.233238 11.471504 -2.677606 -54.531469 -9.163790 177.126787 83.653459 -171.036999 -29.351468 -2.440030 -4.078581 -0.065843 -11.878779 0.583862 -11.927626 -55.788038 16.021105 -71.287785 64.955095 -77.068214 30.781172 6.876688 17.017949 0.009160 -0.265389 0.015569
-164.265948 49.140519 17.735529 178.159556 -30.769595 -2.727461 1.017923 18.282324 2.816276 0.069157 2.076304 0.291240 0.116605 3.450475 0.468017 0.808459 15.919414 2.306184 11.064314 20.995551 -2.341243 20.725211 4.264915 -7.297829 -3.957579 -1.468654 -2.698938 4.691618 -8.765373 -14.908610 -36.035504 -39.816534 87.190546 2.491829 3.744839 -13.534708 -0.215907 -1.750129 3.565287 6.953900 -14.968911 11.015227 70.754760 -40.510888 -104.005477 15.511015 -4.889065 11.953334 -2.632079 -54.523653 -9.218106 177.042059 83.661405 -171.096678 -29.406189 -2.466469 -4.095378 -0.026555 -11.852538 0.602086 -11.871209 -55.804175 15.979648 -71.283136 64.971252 -77.093320 30.822716 6.880387 17.064681 -0.035522 -0.291447 0.024160
-164.276901 49.137350 17.736674 178.178520 -30.743077 -2.785035 1.015573 18.265334 2.855042 0.065687 2.088468 0.278832 0.116494 3.452369 0.468764 0.805694 15.929144 2.304692 11.041841 20.980783 -2.325229 20.675046 4.243326 -7.268540 -3.929134 -1.513032 -2.684821 4.732828 -8.790474 -14.984581 -36.016438 -39.823115 87.178103 2.477405 3.739370 -13.511581 -0.288185 -1.731702 3.556769 7.250701 -14.985911 10.851830 70.867512 -40.291431 -103.612793 15.507394 -4.495936 12.292157 -2.676484 -54.535166 -9.175800 177.017347 83.674655 -171.100570 -29.393972 -2.474210 -4.106236 -0.056533 -11.837082 0.619005 -11.837479 -55.858651 15.993108 -71.366424 64.973447 -77.151366 30.835871 6.884629 17.105123 -0.058677 -0.311028 0.031781
-164.293279 49.135577 17.736297 178.190929 -30.725901 -2.818518 1.011194 18.258647 2.870723 0.058065 2.108251 0.258652 0.117943 3.448484 0.475516 0.805351 15.932265 2.308469 11.029079 20.964062 -2.311972 20.611992 4.217567 -7.230894 -3.907136 -1.547140 -2.669871 4.768113 -8.824292 -15.050631 -36.034659 -39.778592 87.188983 2.479541 3.746395 -13.507081 -0.346169 -1.716896 3.545257 7.606207 -14.999811 10.728929 70.899282 -40.111283 -103.264914 15.482978 -4.141695 12.576484 -2.685343 -54.542111 -9.169001 177.059349 83.680808 -171.047731 -29.380049 -2.476059 -4.105158 -0.060269 -11.824120 0.627333 -11.763459 -55.906018 15.964382 -71.443727 64.973302 -77.201508 30.832603 6.899665 17.144444 -0.044019 -0.326438 0.028764
-164.311560 49.134591 17.736369 178.204566 -30.706407 -2.848523 0.999177 18.262705 2.864905 0.061162 2.098283 0.272527 0.117833 3.449171 0.476011 0.804909 15.933581 2.310469 11.029328 20.952695 -2.305800 20.518341 4.195105 -7.177616 -3.899612 -1.563271 -2.661356 4.794172 -8.864073 -15.107015 -36.035243 -39.738804 87.193995 2.481346 3.754274 -13.510879 -0.370035 -1.710809 3.539791 7.973084 -14.995694 10.640604 70.861381 -39.929188 -102.974801 15.466821 -3.887874 12.865503 -2.691351 -54.549193 -9.170850 177.022109 83.692593 -171.070631 -29.381864 -2.484476 -4.103152 -0.060727 -11.805918 0.632902 -11.715109 -55.946099 15.947858 -71.486452 64.972858 -77.229436 30.831860 6.912540 17.180557 -0.012893 -0.325502 0.012441
-164.327974 49.134098 17.738118 178.210476 -30.678614 -2.888800 0.978000 18.289825 2.838235 0.084759 2.058332 0.315591 0.117841 3.449747 0.476544 0.782395 15.957751 2.296261 11.011743 20.931660 -2.291189 20.448231 4.166730 -7.143812 -3.876298 -1.597256 -2.641039 4.811124 -8.905585 -15.153114 -36.009706 -39.724482 87.183693 2.479018 3.767097 -13.535713 -0.402130 -1.693476 3.531620 8.385441 -15.020096 10.609867 70.791426 -39.729434 -102.747324 15.484013 -3.766417 13.197936 -2.676610 -54.556559 -9.177997 176.918534 83.711307 -171.134199 -29.377248 -2.496744 -4.106324 -0.059828 -11.783241 0.636011 -11.690676 -55.988123 15.963869 -71.517684 64.967675 -77.246917 30.856961 6.925840 17.196565 -0.033053 -0.344072 0.034781
-164.344682 49.134348 17.740704 178.217677 -30.647359 -2.927071 0.964278 18.287602 2.841333 0.066635 2.086083 0.288256 0.115971 3.451498 0.478444 0.807454 15.930394 2.324999 10.982045 20.920009 -2.280017 20.368819 4.146710 -7.110207 -3.863292 -1.617934 -2.627381 4.818380 -8.947299 -15.185961 -35.982270 -39.711215 87.180671 2.470156 3.755129 -13.627079 -0.425362 -1.669818 3.523143 8.758570 -15.025467 10.614030 70.728095 -39.517961 -102.582755 15.553101 -3.770205 13.586037 -2.678545 -54.571809 -9.171471 176.816656 83.729778 -171.212460 -29.369793 -2.495206 -4.105108 -0.063283 -11.770089 0.637704 -11.672188 -56.030861 15.983158 -71.540605 64.958524 -77.260867 30.863391 6.935334 17.233960 -0.034823 -0.352502 0.033622
-164.357239 49.133629 17.747273 178.220070 -30.592664 -2.984402 0.957777 18.263082 2.866464 0.071936 2.078305 0.295467 0.114652 3.451676 0.479205 0.822021 15.915741 2.337331 10.850528 20.956823 -2.269622 20.337980 4.124073 -7.113327 -3.880843 -1.613467 -2.625348 4.813928 -8.988200 -15.201349 -35.954509 -39.704533 87.173995 2.448651 3.730316 -13.691585 -0.455761 -1.637643 3.513669 9.042434 -14.990459 10.641328 70.710024 -39.312318 -102.471981 15.673624 -3.868491 14.020759 -2.730760 -54.611765 -9.105347 176.756930 83.756107 -171.256641 -29.364725 -2.482092 -4.109453 -0.061361 -11.763837 0.636485 -11.697839 -56.092106 16.056595 -71.562972 64.951361 -77.278865 30.873010 6.931310 17.275751 -0.041873 -0.345974 0.022056
